<svg width="227" height="31" viewBox="0 0 227 31" fill="none" xmlns="http://www.w3.org/2000/svg">
<path d="M24.2396 30.3754L21.5801 23.6253H7.74236L5.09295 30.3754H0L12.2008 0H16.9022L29.4608 30.3754H24.2396ZM14.6106 6.46997L9.62563 19.2378H19.6732L14.6106 6.46997Z" fill="#1F7DC2"/>
<path d="M42.1577 30.1864C39.7064 30.2181 37.3036 29.5023 35.2692 28.1344C34.072 27.3252 33.0409 26.2941 32.2317 25.0968C30.8366 23.044 30.1051 20.6126 30.1358 18.1307C30.1063 15.983 30.6466 13.8658 31.7018 11.9949C32.7208 10.1872 34.2178 8.69493 36.0286 7.6816C37.9022 6.62663 40.0212 6.08524 42.1712 6.1122C44.8135 6.05372 47.3973 6.89513 49.4984 8.49836C51.5504 10.0763 52.9836 12.3241 53.5485 14.8502H48.8808C48.3045 13.5738 47.3656 12.4952 46.1808 11.7485C44.9765 10.9896 43.5777 10.5968 42.1543 10.6179C41.1914 10.5942 40.2343 10.7741 39.3456 11.1458C38.4569 11.5174 37.6567 12.0724 36.9973 12.7745C36.3147 13.4856 35.7806 14.3254 35.4259 15.245C35.0713 16.1645 34.9033 17.1455 34.9317 18.1307C34.906 19.119 35.0761 20.1026 35.4323 21.0248C35.7886 21.947 36.3239 22.7895 37.0074 23.5038C37.6624 24.2105 38.4598 24.7702 39.347 25.146C40.2342 25.5218 41.191 25.7052 42.1543 25.6841C43.5797 25.7087 44.9795 25.3029 46.1706 24.5197C47.3674 23.7189 48.3055 22.5873 48.8707 21.2628H53.6227C53.0588 23.832 51.6127 26.1224 49.5356 27.7361C47.4308 29.3762 44.8255 30.2415 42.1577 30.1864Z" fill="#1F7DC2"/>
<path d="M68.0578 30.1864C65.6123 30.2147 63.2159 29.499 61.1862 28.1344C59.989 27.3252 58.9579 26.2941 58.1487 25.0968C56.7571 23.0406 56.0302 20.6067 56.0663 18.124C56.0368 15.9763 56.5771 13.8591 57.6323 11.9882C58.6513 10.1805 60.1483 8.68819 61.9591 7.67485C63.8327 6.61989 65.9517 6.0785 68.1017 6.10546C70.744 6.04698 73.3278 6.88838 75.4289 8.49161C77.4809 10.0695 78.9141 12.3174 79.479 14.8435H74.7809C74.2047 13.5671 73.2657 12.4884 72.0809 11.7418C70.8766 10.9828 69.4778 10.59 68.0545 10.6111C67.0915 10.5875 66.1344 10.7674 65.2457 11.139C64.3571 11.5107 63.5568 12.0657 62.8974 12.7678C62.217 13.481 61.6855 14.3225 61.3338 15.2433C60.982 16.164 60.8172 17.1456 60.8487 18.1307C60.8229 19.119 60.9931 20.1026 61.3493 21.0248C61.7056 21.947 62.2409 22.7895 62.9244 23.5038C63.5794 24.2105 64.3768 24.7702 65.264 25.146C66.1512 25.5218 67.108 25.7052 68.0713 25.6841C69.4967 25.7087 70.8964 25.3029 72.0876 24.5197C73.2844 23.7189 74.2225 22.5873 74.7877 21.2628H79.5127C78.9488 23.832 77.5027 26.1224 75.4256 27.7361C73.3235 29.374 70.7221 30.2391 68.0578 30.1864Z" fill="#1F7DC2"/>
<path d="M101.613 28.8094C99.6479 29.8574 97.4554 30.4056 95.2286 30.4056C93.0019 30.4056 90.8094 29.8574 88.8448 28.8094C86.9783 27.7834 85.4282 26.2661 84.3627 24.4218C83.2669 22.5169 82.705 20.3518 82.7359 18.1544C82.7035 15.9493 83.2655 13.7762 84.3627 11.8633C85.4262 10.0175 86.9767 8.49964 88.8448 7.47573C90.8121 6.43628 93.0036 5.89294 95.2286 5.89294C97.4537 5.89294 99.6452 6.43628 101.613 7.47573C103.481 8.4988 105.032 10.0168 106.095 11.8633C107.189 13.7736 107.751 15.9427 107.721 18.1443C107.752 20.3417 107.19 22.5068 106.095 24.4117C105.031 26.2597 103.48 27.7806 101.613 28.8094ZM89.7628 23.6625C91.1938 25.1002 93.0163 25.8191 95.2303 25.8191C97.4444 25.8191 99.2658 25.1002 100.695 23.6625C102.126 22.2247 102.841 20.3853 102.841 18.1443C102.841 15.9032 102.126 14.0638 100.695 12.6261C99.2635 11.1838 97.4421 10.4627 95.2303 10.4627C93.0186 10.4627 91.196 11.1815 89.7628 12.6193C88.3317 14.0571 87.6174 15.8965 87.6196 18.1375C87.6219 20.3785 88.3362 22.2202 89.7628 23.6625Z" fill="#1F7DC2"/>
<path d="M150.402 18.3535C150.395 18.8751 150.356 19.3957 150.288 19.9128H131.357C131.547 21.65 132.392 23.2495 133.72 24.3856C135.048 25.5217 136.759 26.1092 138.505 26.0284C139.8 26.0523 141.079 25.7407 142.218 25.1239C143.288 24.539 144.175 23.67 144.783 22.6128H149.845C149.007 24.9547 147.467 26.9808 145.434 28.4145C143.406 29.8257 140.986 30.5636 138.515 30.5239C135.113 30.5239 132.263 29.3494 129.963 27.0004C127.663 24.6514 126.518 21.7477 126.527 18.2894C126.499 16.1084 127.036 13.9573 128.086 12.0455C129.091 10.2158 130.58 8.6978 132.39 7.65799C134.248 6.5877 136.361 6.03744 138.505 6.06496C140.693 6.02922 142.847 6.60175 144.729 7.71874C146.515 8.77765 147.972 10.3118 148.937 12.1502C149.929 14.066 150.432 16.1967 150.402 18.3535ZM138.505 10.196C136.852 10.1517 135.235 10.6906 133.939 11.7182C132.661 12.7727 131.788 14.2372 131.468 15.8627H145.61C145.258 14.2252 144.36 12.7562 143.062 11.6979C141.763 10.6841 140.152 10.1532 138.505 10.196Z" fill="#1F7DC2"/>
<path d="M159.633 25.6504H172.121V30.3754H154.57V0H159.633V25.6504Z" fill="#1F7DC2"/>
<path d="M206.884 24.9754H207.221V26.3254H205.844L202.159 18.4244V0H206.884V16.639L206.485 18.097L206.884 19.4673V24.9754Z" fill="#1F7DC2"/>
<path d="M220.89 28.7689C218.925 29.8169 216.732 30.3651 214.505 30.3651C212.277 30.3651 210.084 29.8169 208.119 28.7689C206.254 27.7411 204.704 26.2242 203.637 24.3813C202.553 22.5116 202.348 20.4224 202.348 18.1105C202.348 15.7986 202.553 13.6892 203.637 11.8228C204.7 9.97697 206.251 8.45913 208.119 7.43522C210.086 6.39349 212.278 5.84888 214.505 5.84888C216.731 5.84888 218.923 6.39349 220.89 7.43522C222.758 8.45913 224.309 9.97697 225.372 11.8228C226.465 13.7325 227.027 15.9001 226.999 18.1004C227.028 20.2986 226.466 22.4643 225.372 24.3712C224.305 26.217 222.756 27.7373 220.89 28.7689ZM209.04 23.6253C210.467 25.0631 212.288 25.782 214.505 25.782C216.721 25.782 218.542 25.0631 219.969 23.6253C221.4 22.1876 222.115 20.3482 222.115 18.1071C222.115 15.8661 221.4 14.0278 219.969 12.5923C218.538 11.1545 216.716 10.4356 214.505 10.4356C212.293 10.4356 210.471 11.1545 209.04 12.5923C207.609 14.0278 206.894 15.8661 206.894 18.1071C206.894 20.3482 207.609 22.1876 209.04 23.6253Z" fill="#1F7DC2"/>
<path d="M115.757 30.3754H110.695V17.1013C110.72 15.1842 111.228 13.3043 112.172 11.6354C113.115 9.96658 114.465 8.56261 116.095 7.55334C119.132 5.65994 122.453 5.84556 125.883 5.84556V10.8001C125.883 10.6921 121.714 10.7799 121.326 10.8339C119.968 11.0121 118.701 11.6145 117.705 12.5552C117.089 13.1403 116.598 13.845 116.263 14.626C115.928 15.4071 115.756 16.2482 115.757 17.098V30.3754Z" fill="#1F7DC2"/>
<path d="M198.784 18.0903V30.3754H193.721V19.6124L194.025 18.124L194.058 16.7166V12.5889L195.139 9.07214L198.784 18.0903Z" fill="#1F7DC2"/>
<path d="M175.371 24.432C174.284 22.5656 174.078 20.4764 174.078 18.1645C174.078 15.8526 174.284 13.7769 175.371 11.8869C176.432 10.039 177.983 8.52043 179.853 7.49936C181.82 6.45764 184.011 5.91302 186.237 5.91302C188.462 5.91302 190.654 6.45764 192.621 7.49936C194.49 8.52228 196.04 10.0404 197.103 11.8869C198.2 13.7985 198.762 15.9706 198.73 18.1746C198.761 20.372 198.199 22.5371 197.103 24.4421C196.037 26.2864 194.487 27.8038 192.621 28.8297C190.656 29.8776 188.464 30.4258 186.237 30.4258C184.01 30.4258 181.818 29.8776 179.853 28.8297C177.984 27.8019 176.434 26.2807 175.371 24.432ZM193.846 18.1645C193.846 15.9145 193.131 14.0751 191.703 12.6463C190.274 11.2175 188.451 10.4987 186.235 10.4897C184.026 10.4897 182.204 11.2085 180.771 12.6463C179.338 14.0841 178.627 15.9235 178.638 18.1645C178.638 20.4145 179.353 22.2539 180.784 23.6827C182.215 25.1115 184.037 25.8304 186.249 25.8394C188.463 25.8394 190.285 25.1205 191.716 23.6827C193.147 22.2449 193.857 20.4055 193.846 18.1645Z" fill="#1F7DC2"/>
</svg>
